<?xml version="1.0" encoding="UTF-8" standalone="no"?>
<svg xmlns:rdf="http://www.w3.org/1999/02/22-rdf-syntax-ns#" xmlns="http://www.w3.org/2000/svg" height="1700" viewBox="0 0 4410 1700" width="4410" version="1.1" xmlns:cc="http://creativecommons.org/ns#" xmlns:dc="http://purl.org/dc/elements/1.1/">
<path d="m573.5 1698.9c-155.59-9.7-267.83-62.5-355.81-167.4-100.72-120.1-160.17-313.3-162.31-527.5-0.264-26.21-1.035-51.28-1.877-61-1.316-15.18-3.201-42.44-3.768-54.5l-0.23512-5-8.656-0.28756-8.656-0.28756-2.1979 6.6046c-9.29 27.92-29.99 13.4-29.99-21.03 0-32.36 17.936-47.86 28.401-24.54l2.711 6.04h8.444 8.444v-45.26c0-55.8 2.614-117.95 5.982-142.24 0.53386-3.85 1.4485-13.3 2.0326-21 6.005-79.18 29.071-187.17 56.155-262.94 11.12-31.1 33.52-83.06 41.2-95.56 1.52-2.475 6.8287-11.69 11.797-20.478 63.31-111.99 156.58-189.71 269.83-224.85 139.09-43.152 278.83-49.263 401.89-17.573 83.82 21.585 142.1 47.42 280.61 124.4 225.49 125.32 292.58 134.51 584 79.976 80.486-15.062 106.14-19.258 143-23.393 108.69-12.191 178.85 4.6026 229.59 54.961 5.3166 5.2759 12.533 11.878 16.036 14.671 78.314 62.439 126.97 202.76 132.93 383.36 0.6068 18.382 1.1784 33.485 1.2704 33.561 0.092 0.0765 344.39-3.4358 765.11-7.805l764.94-7.9441 8.0571-6.7641c38.353-32.198 67.681-44.735 107.06-45.764 23.663-0.61851 22.68-0.25408 17.182-6.3693-21.374-23.774-1.5228-66.704 35.405-76.564 46.096-12.309 92.339 33.428 71.996 71.207l-2.7643 5.1335 3.5907-0.39149c1.9749-0.21532 17.091-1.2905 33.591-2.3894 16.5-1.0988 32.9-2.282 36.443-2.6292l6.4432-0.63129-5.4824-2.7722c-34.808-17.601-17.336-73.143 26.556-84.422 49.4-12.695 97.132 42.973 66.632 77.71l-3.2054 3.6506 3.3065-0.44002c1.8185-0.24202 18.831-1.5799 37.806-2.9731s36.074-2.7874 37.998-3.0982l3.4984-0.56509-2.9984-1.5229c-39.499-20.062-9.3187-83.336 40.585-85.088 44.945-1.5775 81.667 48.884 55.693 76.532l-2.1254 2.2625h3.7417c2.0579 0 12.062-0.91807 22.231-2.0402 40.333-4.4504 49.304 5.2485 52.297 56.54 1.9426 33.293 1.5797 247.21-0.4292 253-6.0045 17.301-24.559 26.751-56.992 29.026-12.129 0.85101-11.936 0.74196-8.9882 5.0862 20.477 30.175-11.508 74.423-54.012 74.721-43.892 0.3076-75.973-44.62-54.328-76.084l2.9238-4.25-6.2981-0.0732c-3.4639-0.0402-17.548-0.63811-31.298-1.3286s-25.091-1.2037-25.203-1.1404c-0.1117 0.0633 0.5019 2.52 1.3636 5.4594 11.229 38.305-32.243 75.944-74.66 64.642-34.512-9.1958-55.204-48.349-38.535-72.913l2.4746-3.6466-3.2198-0.0214c-1.771-0.0118-12.895-0.67714-24.72-1.4786-11.825-0.8015-23.3-1.4669-25.5-1.4786l-4-0.0214-0.024 9.75c-0.1375 56.144-80.377 76.136-111.67 27.822-7.5376-11.639-10.386-29.636-6.4057-40.478 2.0401-5.5573 3.3382-4.995-14.014-6.0698-88.26-5.4671-97.767-7.6093-116.89-26.339l-9-8.8151-19.5 0.60467c-10.725 0.33257-351.31 12.962-756.85 28.065-405.6 15.1-739.8 27.46-742.8 27.46h-5.3983l-0.01 20.25c-0.091 296.27-89.044 445.93-284.22 478.18-81.149 13.407-175.37 9.3018-342.77-14.935-61.212-8.8627-79.488-10.228-113.4-8.469-101.11 5.2432-176.59 33.633-353.1 132.81-111.57 62.69-164.15 89.266-223.51 112.97-111.15 44.396-222.03 63.047-333.49 56.097zm90.67-16.916c142.02-9.4259 242.86-46.051 454.83-165.19 106.1-59.632 187.1-99.556 215.5-106.21 1.65-0.3865 5.712-1.7758 9.0266-3.0874 16.769-6.6355 58.822-17.308 86.473-21.946 52.272-8.768 90.629-8.198 164.52 2.4444 199.78 28.774 296.58 30.438 383.57 6.5932 156.17-42.808 228.81-186.22 228.9-451.95l0.01-19.862-12.75 0.65243c-7.0125 0.35884-91.237 3.5582-187.16 7.1098-95.928 3.5516-174.45 6.5706-174.5 6.7091-4.0216 11.899-26.22 46.627-41.113 64.318l-7.1772 8.5257-0.6782 12.204c-4.7711 85.853-50.814 162-137.62 227.59-58.36 44.098-172.05 84.799-288 103.1-7.425 1.172-17.1 2.7615-21.5 3.5321-57.368 10.048-157.34 14.869-188 9.0662-63.979-12.108-95.202-56.142-103.94-146.58-12.644-130.91-0.9701-185.99 52.011-245.38l8.8159-9.8828-10.445 0.62175c-5.7448 0.34197-24.845 1.1336-42.445 1.7593-17.6 0.62564-32.125 1.2434-32.279 1.3729-0.1532 0.12947-0.5646 46.651-0.9141 103.38l-0.6355 103.15-60.02-0.2578-60.02-0.2577-3.182-13c-1.7501-7.15-6-24.7-9.4443-39-10.886-45.197-18.341-69.965-26.486-88l-7.2262-16 0.79261-182.27 0.79261-182.27 3.6206-5.9601c21.148-34.814 32.657-87.512 28.484-130.43-0.53081-5.4592-0.83633-10.055-0.67894-10.212 4.1534-4.1534 103.75-4.7566 129.8-0.78609l3.5998 0.5488 0.5356 96.489c0.2945 53.069 0.7758 96.73 1.0694 97.023 0.2936 0.2936 59.326-0.0673 131.18-0.802l130.5-1.33 5.8-12.5c105.87-231.46 439.63-232.99 545.09-2.4862l4.124 9.0138 30.216-0.26563c118.33-1.0402 339.24-3.4558 339.5-3.7122 1.7774-1.7774-3.2398-89.515-6.8649-120.05-15.414-129.83-62.281-239.56-121.42-284.28-2.75-2.0794-9.9599-8.7176-16.022-14.751-44.914-44.705-107.07-60.695-202.06-51.978-37.691 3.4585-70.024 8.5906-157.42 24.986-274.63 51.523-366.02 42.302-544.5-54.935-9.9-5.3936-38.025-20.937-62.5-34.54-211.56-117.59-331.72-149.15-498.48-130.95-215.47 23.525-344.96 106.4-431.95 276.45-47.392 92.645-83.49 227.65-93.05 348-0.30582 3.85-0.98565 11.05-1.5107 16-4.2991 40.528-5.5106 72.349-5.4824 144 0.02765 70.364 0.89795 94.095 5.0243 137 0.96728 10.058 1.4436 27.51 1.4456 52.966 0.0029 36.569 0.3106 43.867 3.5647 84.534 15.403 192.49 70.127 341.03 168.05 456.14 54.614 64.2 148.15 116.4 240.89 134.42 9.9 1.924 21.384 4.1761 25.521 5.0046 4.1365 0.8285 12.462 1.9242 18.5 2.4347 6.0385 0.5106 18.854 1.6133 28.479 2.4505s20.2 1.6689 23.5 1.8483c14.93 0.8113 69.823 0.6058 83.67-0.3132zm576.83-332c29.27-2.0027 85.856-8.2519 99.5-10.988 2.75-0.5516 14-2.5991 25-4.5502 100.36-17.799 192.65-48.655 248-82.909 33.722-20.87 80.122-62.729 97.5-87.959 1.375-1.9963 3.5991-4.8564 4.9425-6.3559 22.911-25.574 50.058-94.344 50.058-126.81 0-0.9019-3.3489 1.3868-8.25 5.6383-139.23 120.77-356.28 87.943-451.86-68.343-3.4336-5.6144-6.3519-10.36-6.4851-10.546-0.1332-0.18569-37.732 1.0776-83.552 2.8073l-83.31 3.1449-3.5192 2.6524c-47.81 36.034-73.256 95.634-71.615 167.73 3.6764 161.48 26.323 208.42 104.6 216.81 7.8324 0.8388 65.49 0.6074 79-0.317zm-239-252.5v-59.5h-60.5c-33.275 0-60.5 0.2072-60.5 0.4604s2.28 8.0157 5.0666 17.25 7.5247 26.465 10.529 38.29c3.0044 11.825 6.5435 25.55 7.8648 30.5s3.5928 14.288 5.0477 20.75l2.6453 11.75h44.923 44.923v-59.5zm594-7.066c88.633-11.326 166.45-63.212 210.88-140.6 7.4388-12.959 7.4981-11.843-0.6263-11.782l-6.75 0.05-6.4203 10.958c-97.86 167.03-344.02 175.53-454.16 15.692l-6.0294-8.75h-6.945c-8.4516 0-8.5119-1.0738 0.693 12.33 51.19 74.542 126.7 117.15 219.86 124.08 9.0305 0.671 37.772-0.4749 49.5-1.9736zm4-29.846c73.734-12.905 133.69-51.686 173.6-112.28 6.7965-10.32 7.5801-9.6336-9.9989-8.7629l-14.56 0.72117-4.1948 5.6165c-60.092 80.458-164.56 112.44-259.92 79.577-34.982-12.057-72.797-37.546-95.422-64.321l-6-7.1005-9.5 0.0891c-5.225 0.049-12.091 0.37772-15.258 0.73052l-5.7584 0.64147 6.6772 8.886c53.7 71.29 153.7 111.39 240.4 96.19zm-598-66.1v-26.5h-4-4v15.54 15.54l-8.25-0.29044-8.25-0.29044-0.27673-14.75-0.27674-14.75h-8.4346-8.4346l-3.9911 4.0311c-13.54 13.68-38.08 7.16-38.08-10.11 0-14.304 20.509-21.848 34.178-12.572 3.2216 2.1863 4.1648 2.3108 14.137 1.8673l10.68-0.48v-14.717-14.717l-10.185 0.49042c-9.8273 0.47321-10.273 0.59564-12.709 3.4901-12.597 14.971-42.973 2.9892-37.15-14.654 4.103-12.432 30.003-17.213 36.48-6.7339 0.73983 1.1971 15.157 1.5341 20.439 0.47778l3.125-0.625 0.002-12.625 0.002-12.625-12.752 0.56631c-11.345 0.50383-13.295 0.86244-17.672 3.25-16.593 9.0519-37.801-6.057-29.886-21.291 6.3648-12.249 29.593-13.653 36.805-2.2238l2 3.1694 10.5-0.23554 10.5-0.23554 0.27026-21.377 0.27025-21.377-11.407 0.43663c-11.36 0.43482-11.421 0.45049-14.74 3.7695-16.728 16.728-48.09-2.1774-33.784-20.365 6.9714-8.8627 24.264-9.6802 33.39-1.5785 1.7608 1.563 3.4653 1.712 14.25 1.2458l12.24-0.52v-18.87-18.86h-12.465c-11.375 0-12.557 0.1721-13.518 1.9686-8.59 16.051-43.021 5.1203-38.656-12.271 3.3688-13.422 27.709-18.993 36.511-8.3556 1.1532 1.3936 3.5091 1.6585 14.75 1.6585h13.37v-15-15h-12.826c-12.52 0-12.883 0.0619-15.25 2.5973-14.436 15.467-44.519 2.737-36.915-15.621 5.0444-12.178 27.544-15.653 35.93-5.5495 1.0724 1.2922 3.7777 1.5731 15.148 1.5731h13.843l0.28499-10.25 0.28498-10.25 8.25-0.29044 8.25-0.29044v10.04 10.04h4 4v-18-18h-65.5-65.5v176.92c0 97.305 0.27314 177.63 0.60699 178.5 0.54486 1.4199 7.2486 1.5818 65.5 1.5818h64.893v-26.5zm588.05 24.949c49.344-6.8824 97.396-32.52 129.11-68.886 4.2869-4.9157 7.6372-9.0948 7.4451-9.2868-0.3658-0.36578-290.74 10.206-310.47 11.303l-11.358 0.63179 4.8585 4.9893c45.364 46.585 115.31 70.329 180.41 61.249zm2717-38.5c16.57-7.907 26.66-26.284 22.069-40.195-6.3544-19.254-77.779-19.265-84.133-0.0137-9.4264 28.562 31.249 54.914 62.064 40.209zm-170.99-11.002c29.753-14.158 31.576-47.228 2.921-52.975-35.224-7.0647-65.447 2.1283-65.411 19.896 0.057 28.164 34.502 46.397 62.49 33.079zm-173.7-14.83c20.229-6.9597 33.464-30.646 25.181-45.066-9.1081-15.857-74.696-15.175-81.923 0.85142-11.956 26.514 24.843 55.189 56.741 44.215zm-2960.3-18.85v-14.776l-4 0.38146-4 0.38146v14.395 14.395h4 4v-14.776zm157.81 8.8526c71.12-2.6745 129.51-5.0664 129.76-5.3152 0.2488-0.24886-1.8145-5.8094-4.5851-12.357-2.7707-6.5473-5.4517-12.884-5.9578-14.081-0.8527-2.0176-1.4551-2.144-8.2248-1.7264-4.0176 0.24787-58.38 2.2417-120.8 4.4307-62.425 2.189-117.21 4.2437-121.75 4.5661l-8.25 0.58614v14.41 14.41l5.25-0.0305c2.8875-0.0168 63.44-2.2188 134.56-4.8933zm159.3-13.32c-2.0385-3.9875-5.1727-10.573-6.965-14.634l-3.2587-7.3841-5.5492 0.57273c-7.9645 0.82201-8.0214-0.52873 0.7776 18.446l4.7533 10.25h6.9741 6.9742l-3.7063-7.25zm50.478 4.9942c0.2288-0.22886-1.7226-3.9774-4.3366-8.3301s-6.1027-10.5-7.7526-13.662l-3-5.7476-13.25-0.002c-10.584-0.002-13.25 0.27459-13.25 1.3741 0 1.5774 11.177 23.927 13.162 26.319 1.2253 1.4763 26.955 1.5204 28.427 0.0488zm197.4-6.78c191.26-6.9473 172.2-5.7292 175.67-11.225 3.9895-6.3103 12.637-23.754 12.062-24.329-0.4861-0.48603-350.91 11.943-371.47 13.175l-10.236 0.61355 2.6687 4.6547c9.9973 17.437 14.629 23.15 18.804 23.192 2.2 0.0221 79.825-2.7141 172.5-6.0804zm211.09-7.9454 10.592-0.011 3.6222-7.75c10.811-23.132 11.008-22.253-4.8275-21.544l-12.979 0.58075-7.2456 14.987-7.2455 14.987 3.7455-0.61912c2.0601-0.34052 8.5121-0.62407 14.338-0.63012zm44.008-3.156c0.8587-1.3721 8.2358-21.464 9.4014-25.605 0.6069-2.1563 0.3798-2.25-5.4556-2.25-5.3728 0-6.1979 0.26459-7.0164 2.25-0.5102 1.2375-3.1748 8.047-5.9214 15.132l-4.9937 12.882 6.5689-0.52729c3.9414-0.31638 6.908-1.0693 7.4168-1.8823zm21.9-3.52c0-5.3494-0.091-5.3331-2.3293 0.41667-1.6083 4.1313-1.5989 4.25 0.3374 4.25 1.7046 0 1.9919-0.67299 1.9919-4.6667zm41.25 2.6727 7.75-0.006v-14.5-14.5h-5.3444c-2.9395 0-10.14 0.29338-16 0.65197l-10.656 0.65196v14.496 14.496l8.25-0.64222c4.5375-0.35322 11.738-0.64492 16-0.64822zm54.5-2h5.343v-14.653-14.653l-11.25 0.64824c-6.1875 0.35654-14.062 0.65029-17.5 0.65279l-6.3 0.01v14.654 14.654l12.157-0.65367c6.6864-0.35953 14.561-0.65368 17.5-0.65368zm56.093-1.9959 8.25-0.004v-14.616-14.616l-20.25 0.72875c-24.5 0.89-21.8-1.09-21.8 15.72v14.095l12.75-0.65026c7.0125-0.35765 16.462-0.65209 21-0.65432zm64-2.626 9.25-0.56475v-14.334-14.334l-5.25 0.41843c-2.8875 0.23014-13.688 0.69642-24 1.0362l-18.75 0.61773v14.452 14.452l14.75-0.58877c8.1125-0.32382 18.912-0.8429 24-1.1535zm68-2.2746l9.2-0.1v-14.599-14.599l-17.25 0.61964c-9.4875 0.34081-20.962 0.87568-25.5 1.1886l-8.25 0.56896v14.16 14.16l16.252-0.64654c8.9384-0.3556 20.414-0.6931 25.502-0.75zm66.527-2.7347 12.777-0.59484-0.2767-14.137l-0.3-14.14-3.5 0.19031c-1.925 0.10466-13.738 0.49226-26.25 0.86132l-22.75 0.67101v14.491 14.491l13.75-0.62064c7.5625-0.34135 19.5-0.88832 26.527-1.2155zm2164.7-1.7c18.805-3.0896 28.2-7.3554 31.496-14.3 1.6794-3.5392 1.7713-10.304 1.6063-118.31-0.2742-179.45 0.4835-175.26-31.102-171.64-80.548 9.248-442.85 35.544-490.12 35.574-32.89 0.0205-65.551 14.389-99.881 43.941l-3.5 3.0128 59.685 0.0269c61.495 0.0277 64.097-0.13514 65.352-4.0897 7.8622-24.772 59.732-25.024 70.045-0.34095l1.4446 3.4576 41.737-0.009c22.955-0.005 44.043-0.28583 46.862-0.62454l5.1254-0.61585 0.5693-4.8071c4.317-36.45 74.68-35.741 74.68 0.75249v4.3037l34.75-0.003c19.112-0.002 41.813-0.29628 50.446-0.65433l15.696-0.65099-1.6694-3.0957c-9.9-18.46 9.4-40.1 35.8-40.1 48.567 0 50.634 55.086 2.2727 60.582-4.551 0.51713-119.29 15.785-254.98 33.929-135.7 18.14-247.1 32.99-247.5 32.99-0.4392 0-0.7986 1.575-0.7986 3.5 0 3.1161 0.2896 3.5 2.6397 3.5 3.6967 0 497.69 37.676 509.54 38.862 47.718 4.7743 45.257 60.434-2.6794 60.603-25.465 0.0898-44.008-19.614-36.562-38.853 1.5683-4.0523 5.2844-3.9148-52.083-1.9261l-52.349 1.8148-0.7076 5.673c-4.8121 38.582-69.592 39.727-75.35 1.3315l-0.6856-4.5719-11.131 0.55987c-11.383 0.57254-64.772 2.5075-69.186 2.5075-2.2594 0-2.4452 0.37063-2.4452 4.8779 0 23.726-37.233 38.194-59.816 23.244-6.4-4.21-15.2-17.32-15.2-22.57 0-3.1693 4.4594-3.1328-66.5-0.54504-29.7 1.0831-57.038 1.9751-60.75 1.9823l-6.8 0.01v8.4073 8.4073l5.1978 4.6732c11.797 10.607 25.047 13.543 74.302 16.468 9.9 0.58791 27.983 1.794 40.184 2.6802 21.329 1.5492 22.466 1.5391 29.5-0.26259 18.903-4.8418 59.334-2.3045 72.868 4.573l5.7065 2.8998 49.371 3.0833c27.154 1.6958 56.571 3.1001 65.371 3.1206s19.375 0.46211 23.5 0.98139c18.33 2.3075 51.631 4.2261 120.5 6.9424 33.318 1.3141 94.134 0.56113 105.5-1.3062zm-23.961-84.596c-1.4843-2.7734-0.2918-4.9399 3.6185-6.5737 8.7811-3.669 7.9654-18.879-1.3313-24.825-14.992-9.5892-15.718-31.798-1.1672-35.717 8.3986-2.2615 2.5194-15.265-7.8818-17.433-12.948-2.6985-9.2964-21.106 5.723-28.846 8.7603-4.515 12.093-24.678 6.2557-37.844-5.8201-13.127-13.227-8.0184-20.31 14.007-2.6502 8.2412-4.647 10.871-7.4406 9.7989-3.2511-1.2475-3.3798-4.0296-0.5857-12.661 7.7031-23.798 17.679-32.123 28.822-24.052 15.194 11.006 13.962 52.14-1.735 57.976-9.5917 3.566-12.771 11.636-5.6074 14.232 16.253 5.89 21.251 32.865 6.0892 32.865-7.5459 0-6.9443 15.019 0.7786 19.438 11.522 6.5928 16.228 21.221 10.484 32.592-3.819 7.5596-13.187 11.759-15.711 7.0424zm-3334.6 84.321c1.3247-0.50831 1.5818-2.6217 1.5818-13v-12.39h-4-4v12.333c0 14.204 0.54523 15.313 6.4182 13.06zm1279.8-1.0617 17.75-0.6436v-14.472-14.472l-11.75 0.61339c-6.4625 0.33736-20.3 0.85739-30.75 1.1556-10.45 0.29822-21.812 0.79083-25.25 1.0947l-6.25 0.55248v14.076 14.076l19.25-0.66835c10.588-0.3676 27.238-0.95797 37-1.312zm-1126.5-4.5259c91.397-3.2578 119.16-4.5338 118.81-5.4598-0.255-0.66463-1.6456-6.0768-3.0902-12.027l-2.6266-10.819-8.1811 0.27599c-25.3 0.86-233 7.23-235.6 7.23h-3.0415v13.117 13.117l7.25-0.5891c3.9875-0.324 60.922-2.5022 126.52-4.8405zm1203 1.5763 19.25-0.65687v-14.333-14.333l-14.25 0.5717c-7.8375 0.31443-21.45 0.8637-30.25 1.2206l-16 0.64889-0.2783 14.388-0.2783 14.388 11.278-0.61841c6.2031-0.34012 19.941-0.914 30.528-1.2753zm83.5-3.0173 21.75-0.66965v-14.403-14.403l-15.75 0.65885c-8.6625 0.36237-24.075 0.94986-34.25 1.3055l-18.5 0.64666-0.2784 14.401-0.2784 14.401 12.778-0.63403c7.0281-0.34871 22.566-0.93537 34.528-1.3037zm76.25-2.8615c10.45-0.29768 22.262-0.79599 26.25-1.1074l7.25-0.56614v-14.066-14.066l-15.25 0.63506c-8.3875 0.34928-24.362 0.93529-35.5 1.3022l-20.25 0.66718v14.468 14.468l9.25-0.59687c5.0875-0.32828 17.8-0.84043 28.25-1.1381zm-1214.7-1.3389c1.0202-0.64753 1.0009-1.5755-0.099-4.7347-0.7522-2.1611-2.1591-7.1918-3.1266-11.179l-1.759-7.25h-6.3021-6.3021l1.27 5.25c0.6984 2.8875 2.1019 8.2875 3.1189 12l1.8489 6.75 5.0409-0.0153c2.7725-0.008 5.6119-0.37774 6.3098-0.8207zm44.938-1.5909c0.1137-0.0842-1.4613-5.4262-3.5-11.871l-3.7067-11.718-12.5 0.64251c-6.875 0.35338-12.612 0.73136-12.748 0.83996-0.3021 0.24 5.6403 21.55 6.3127 22.638 0.373 0.60343 25.294 0.0974 26.142-0.53086zm1260.9-0.5774c15-0.54 29.3-0.99 31.9-0.99h4.6442v-14.423-14.423l-7.25 0.4354c-8.3 0.49-60.9 2.41-66.3 2.41h-3.5101v14.366 14.366l6.75-0.37082c3.7125-0.20396 18.948-0.81887 33.856-1.3665zm-1047.1-6.99c104.96-3.85 193.25-7 196.21-7h5.371l2.4376-8.25c3.2252-10.915 3.8195-13.744 2.8958-13.781-3.8311-0.15257-401.03 12.236-404.92 12.629l-5.1529 0.52119 1.0034 3.6902c2.9159 10.724 6.9464 19.19 9.1355 19.19 1.2032 0 88.064-3.15 193.02-7zm1146.1 3.48c9.9-0.29962 20.812-0.79109 24.25-1.0922l6.25-0.54737v-14.061-14.061l-12.75 0.62437c-7.0125 0.3434-21.3 0.87109-31.75 1.1727-10.45 0.30156-21.812 0.79487-25.25 1.0962l-6.25 0.54793v14.061 14.061l13.75-0.6278c7.5625-0.34529 21.85-0.87295 31.75-1.1726zm75.5-2.9601c10.175-0.29825 24.238-0.82576 31.25-1.1722l12.75-0.62996v-14.014-14.014l-17.25 0.64205c-9.4875 0.35313-25.688 0.94216-36 1.309l-18.75 0.66691v14.38 14.38l4.75-0.5032c2.6125-0.27676 13.075-0.74723 23.25-1.0455zm110-4.02c20.075-0.80468 38.412-1.4714 40.75-1.4815l4.2-0.02v-14-14l-7.25 0.0185c-3.9875 0.0102-23.675 0.67684-43.75 1.4815-20.075 0.80468-37.962 1.4714-39.75 1.4815l-3.3 0.02v14 14l6.25-0.0185c3.4375-0.0102 22.675-0.67684 42.75-1.4815zm107-4c20.075-0.80468 39.088-1.4714 42.25-1.4815l5.8-0.02v-14-14l-7.25 0.0188c-3.9875 0.0103-23.9 0.67536-44.25 1.4779-20.35 0.80251-38.012 1.4691-39.25 1.4812-2.2251 0.0219-2.25 0.17684-2.25 14.022v14l4.25-0.0185c2.3375-0.0102 20.675-0.67684 40.75-1.4815zm-1195.9-1.4948 3.6054-0.005 1.7358-8.25c0.9547-4.5375 1.972-9.2763 2.2608-10.531l0.5249-2.2808-12.761 0.28075-12.761 0.28074-2.7288 10.893-2.7288 10.893 9.624-0.63738c5.2932-0.35055 11.246-0.6397 13.229-0.64255zm33.9-1.4c0-0.39927 2.6846-14.244 3.5595-18.357 0.4564-2.1455 0.1874-2.2497-5.7904-2.2433l-6.2691 0.007-2.0742 10.493-2.0742 10.493h6.3242c3.4783 0 6.3242-0.17687 6.3242-0.39304zm1283-1.61c27.775-1.0882 51.512-1.9834 52.75-1.9893 2.2257-0.0106 2.25-0.16201 2.25-14.011v-14l-2.75 0.0164c-1.5125 0.009-25.925 0.90383-54.25 1.9884s-52.062 1.9772-52.75 1.9835c-0.9399 0.009-1.25 3.4845-1.25 14.012v14l2.75-0.0107c1.5125-0.006 25.475-0.90107 53.25-1.9893zm-1232.3 0h5.3444v-10.5-10.5h-5.3444c-2.9395 0-10.14 0.29338-16 0.65197l-10.656 0.65196v10.5 10.5l10.656-0.65196c5.8605-0.35859 13.06-0.65197 16-0.65197zm45.187-1.6537 12.157-0.65367v-10.482-10.482l-4.6396 0.63593c-2.5517 0.34975-10.427 0.63592-17.5 0.63592h-12.86v10.5 10.5h5.343c2.9386 0 10.814-0.29415 17.5-0.65368zm55.998-2.0024 15.159-0.65613v-9.8439-9.8439l-14.25 0.007c-7.8375 0.004-17.288 0.29398-21 0.6446l-6.75 0.6375v9.8554 9.8554h5.841c3.2126 0 12.663-0.29526 21-0.65613zm1256.9-1.0168 48.25-1.7237v-13.802-13.802l-7.75 0.0188c-4.2625 0.0103-24.4 0.67536-44.75 1.4779-20.35 0.80251-39.812 1.4691-43.25 1.4812l-6.2 0.01v14 14l2.75 0.0254c1.5125 0.014 24.462-0.75029 51-1.6983zm-1180-1.9169 3.25-0.50081v-9.7047-9.7047l-18.752 0.63019c-10.313 0.34661-21.114 0.68411-24.002 0.75l-5.2 0.11v10.081 10.081l20.75-0.62535c11.412-0.34395 22.212-0.85072 24-1.1262zm54.5-2.0125 16.75-0.61059v-9.7733-9.7733l-11.25 0.40231c-6.1875 0.22128-17.662 0.66395-25.5 0.98373l-14.25 0.58141v9.932 9.932l8.75-0.53179c4.8125-0.29249 16.288-0.80656 25.5-1.1424zm1255.2-0.91c23.65-0.80915 47.612-1.7429 53.25-2.0749l10.25-0.60374v-13.345c0-16.319 9.0575-14.611-63-11.878-33.825 1.2829-62.288 2.3512-63.25 2.3741-1.5819 0.0376-1.75 1.3947-1.75 14.126v14.084l10.75-0.60559c5.9125-0.33308 30.1-1.2676 53.75-2.0768zm-2373.5-21.49v-21h-4-4v21 21h4 4v-21zm1200.8 19.408 4.25-0.53037v-9.442-9.442l-16.25 0.53556c-8.9375 0.29456-20.862 0.78932-26.5 1.0995l-10.25 0.56391v9.5086 9.5086l22.25-0.63575c12.238-0.34966 24.162-0.87441 26.5-1.1661zm-1045.9-3.5604 107.3-3.2722-0.5657-3.5376c-1.1402-7.13-2.5041-22.705-2.521-28.788l-0.1-6.25-14.75 0.0132c-8.1125 0.007-57.725 0.90015-110.25 1.9841s-100.11 1.978-105.75 1.9868l-10.2 0.02v21.156 21.156l14.75-0.59633c8.1125-0.32798 63.036-2.0688 122.05-3.8685zm1098.7 1.6646c10.45-0.29821 24.288-0.81824 30.75-1.1556l11.75-0.61339v-9.4697-9.4697l-5.75 0.57447c-3.1625 0.31597-18.125 0.83053-33.25 1.1435-15.125 0.31295-29.188 0.81317-31.25 1.1116l-3.75 0.54262v9.4917 9.4917l6.25-0.55248c3.4375-0.30387 14.8-0.79648 25.25-1.0947zm1266.9-1.51c28.05-1.0854 51.562-1.9794 52.25-1.9867 0.9402-0.01 1.25-3.5042 1.25-14.099v-14.085l-7.25 0.57582c-3.9875 0.3167-29.075 1.2731-55.75 2.1254-26.675 0.85226-50.412 1.7841-52.75 2.0708l-4.25 0.52122v13.439 13.439l7.75-0.0133c4.2625-0.007 30.7-0.90133 58.75-1.9867zm-1155.2-2.6472 8.75-0.61081v-8.9607-8.9607l-21.25 0.61256c-11.688 0.3369-25.412 0.86926-30.5 1.183l-9.25 0.57046v9.0472 9.0472l21.75-0.65868c11.962-0.36228 25.688-0.93355 30.5-1.2695zm90.5-3.2696 4.25-0.0833v-9.1183-9.1183l-8.25 0.60053c-4.5375 0.3303-20.062 0.89425-34.5 1.2532l-26.25 0.65267-0.0008 9.1151-0.0008 9.1151 30.251-1.1668c16.638-0.64171 32.163-1.2042 34.501-1.25zm1209.8 0.58476 57-2.168 0.2782-13.75c0.2151-10.628-0.012-13.757-1-13.781-4.8084-0.11561-124.94 4.2538-127.53 4.6384l-3.25 0.48292v13.455 13.455l8.75-0.082c4.8125-0.0451 34.4-1.0576 65.75-2.25zm-2374.9-2.41c-0.289-2.0625-1.1034-10.838-1.8099-19.5l-1.2846-15.75h-5.7994-5.7995l0.017 6.25c0.017 6.1695 1.3872 21.709 2.5569 29l0.6016 3.75h6.0215 6.0215l-0.5254-3.75zm37.837 2.128 5.0304-0.60459-1.2067-8.1367c-0.6636-4.4752-1.5289-12.974-1.9227-18.887l-0.7161-10.75h-7.7181c-4.2449 0-9.8654 0.29433-12.49 0.65406l-4.7719 0.65407 0.6684 10.096c0.3675 5.5528 1.161 14.033 1.7631 18.846l1.0949 8.75 7.6191-0.009c4.1906-0.005 9.8829-0.28076 12.65-0.61329zm238.48-7.4338c105.9-3.28 194.6-5.95 197.1-5.95 5.6148 0 5.629-0.0434 6.5409-20l0.6169-13.5-17.394 0.32165c-178.09 3.2931-406.17 8.1202-406.66 8.6063-0.7836 0.78358 1.4223 25.893 2.8662 32.626l1.0554 4.9208 11.67-0.54307c6.4185-0.2987 98.298-3.218 204.18-6.4872zm965.24 4.388 15.75-0.63885v-8.4867-8.4867l-30.25 0.66855c-16.638 0.3677-32.612 0.93259-35.5 1.2553l-5.25 0.58677v8.5385 8.5385l19.75-0.66825c10.862-0.36753 26.838-0.95573 35.5-1.3071zm1215.6-13.59l0.2782-13.75h-4.0282-4.0282v14.06 14.06l3.75-0.31036 3.75-0.31037 0.2782-13.75zm-1133.8 10.72c10.725-0.30417 21.412-0.78596 23.75-1.0706l4.25-0.51761v-8.0885-8.0885l-26.75 0.66329c-14.712 0.36482-32.038 0.94596-38.5 1.2914l-11.75 0.62815v8.5066 8.5066l14.75-0.63894c8.1125-0.35142 23.525-0.88781 34.25-1.192zm89.66-3.4882c14.938-0.53762 28.101-0.97748 29.25-0.97748 1.9487 0 2.0898-0.55 2.0898-8.1462v-8.1462l-23.75 0.66229c-13.062 0.36426-30.162 0.94518-38 1.2909l-14.25 0.62863v8.3443 8.3443l8.75-0.51162c4.8125-0.28139 20.972-0.95148 35.91-1.4891zm102.59-3.6394 17.75-0.64264v-7.9858-7.9858l-18.25 0.64811c-10.038 0.35645-26.238 0.93073-36 1.2762l-17.75 0.62807v8.0142 8.0142l18.25-0.66195c10.038-0.36408 26.238-0.95115 36-1.3046zm-994.82-2.4319c0.325-0.32663 0.8817-7.6391 1.237-16.25l0.646-15.656h-12.5-12.5l-0.6444 14.888c-0.3544 8.1882-0.9374 15.651-1.2956 16.585-0.6526 1.7006 23.383 2.1169 25.058 0.434zm1072-0.41c20.35-0.80251 40.262-1.4691 44.25-1.4812l7.2-0.02v-7.8346-7.8346l-7.75 0.338c-14.8 0.65-71.9 2.33-79 2.33h-7.1666v8 8l2.75-0.0188c1.5125-0.0103 19.4-0.67536 39.75-1.4779zm-1042.1-5.6501c0.3534-3.3807 0.6425-10.806 0.6425-16.5v-10.35h-6-6l-0.01 8.25c0 4.5375-0.295 11.962-0.6482 16.5l-0.6422 8.25h6.0057 6.0058l0.6424-6.1467zm44.298 4.1467h5.3444v-16-16l-9.25 0.007c-5.0875 0.004-12.288 0.29398-16 0.6446l-6.75 0.6375v16.007 16.007l10.656-0.65196c5.8605-0.35859 13.06-0.65197 16-0.65197zm52.705-1.6359 4.6396-0.63593v-15.364-15.364l-9.25 0.006c-5.0875 0.003-12.962 0.295-17.5 0.64822l-8.25 0.64222v15.352 15.352h12.86c7.0733 0 14.948-0.28617 17.5-0.63592zm1071.4-1.5097 35.25-1.2048v-7.3248c0-6.9342-0.12-7.3239-2.25-7.3084-1.7591 0.0128-89.482 2.8863-90.5 2.9644-0.1375 0.0106-0.25 3.4602-0.25 7.666v7.6468l11.25-0.61718c6.1875-0.33944 27.112-1.1593 46.5-1.822zm-1009-0.39944c0.9272-0.29086 1.25-4.2742 1.25-15.424v-15.03l-14.25 0.007c-7.8375 0.004-17.288 0.29398-21 0.6446l-6.75 0.6375v15.238 15.238l19.75-0.45951c10.862-0.25273 20.312-0.63596 21-0.85163zm64-2.0377c2.2089-0.447 2.25-0.71987 2.25-14.954v-14.499l-23.75 0.2681-23.75 0.2681-0.276 15.238-0.276 15.238 21.776-0.55211c11.977-0.30366 22.788-0.75699 24.026-1.0074zm1051.2-1.41c28.325-1.0825 52.738-1.9753 54.25-1.9841 2.7421-0.0159 2.75-0.0365 2.75-7.1655v-7.1496l-12.75 0.61848c-7.0125 0.34017-31.988 1.165-55.5 1.833l-42.75 1.2145v7.3165c0 5.195 0.3624 7.3119 1.25 7.3006 0.6875-0.009 24.425-0.9016 52.75-1.9841zm-986.25-0.61401 5.25-0.5299v-14.58-14.58l-10.656 0.65196c-5.8605 0.35859-17.336 0.65197-25.5 0.65197h-14.844v15.01 15.01l20.25-0.55237c11.138-0.3038 22.612-0.79082 25.5-1.0823zm1702.8-1.3906c29.7-1.0831 54.45-2.0295 55-2.1032s-26.45-2.485-60-5.3584c-69.989-5.9942-62.5-6.2968-62.5 2.5252v6.941l6.75-0.0177c3.7125-0.01 31.05-0.90385 60.75-1.9869zm-1638.8-0.6255 11.25-0.56718v-13.901-13.901h-11.341c-6.2376 0-18.163 0.29526-26.5 0.65613l-15.159 0.65613v14.337 14.337l15.25-0.5246c8.3875-0.28852 20.312-0.77982 26.5-1.0918zm63.25-1.8483c15.125-0.31294 30.088-0.8275 33.25-1.1435l5.75-0.57447v-13.39-13.39l-35.75 0.57155c-19.662 0.31435-36.312 0.74469-37 0.9563-0.9228 0.28404-1.25 4.0805-1.25 14.504v14.119l3.75-0.54262c2.0625-0.29844 16.125-0.79866 31.25-1.1116zm986.75-0.19453 48.25-1.7237v-6.9032-6.9032l-6.75 0.58118c-3.7125 0.31965-26.662 1.1198-51 1.7782l-44.25 1.197v6.8233c0 6.7708 0.021 6.8235 2.75 6.8487 1.5125 0.014 24.462-0.75029 51-1.6983zm-890.5-2.9269 20.75-0.62018v-12.89-12.89l-22.25 0.006c-12.238 0.003-25.962 0.295-30.5 0.64822l-8.25 0.64222v13.432 13.432l9.75-0.56998c5.3625-0.31349 19.088-0.84905 30.5-1.1902zm1023.7-1.92c25.025-0.83133 48.762-1.7685 52.75-2.0826l7.25-0.57114v-5.9147-5.9147l-6.25 0.0357c-5.3197 0.0304-120.79 3.7434-121.5 3.907-0.1375 0.0315-0.25 3.0363-0.25 6.6772v6.6199l11.25-0.62257c6.1875-0.34242 31.725-1.3028 56.75-2.1341zm644.43 0.91946 43.929-1.6031 3.3209-2.6498c1.8264-1.4574 2.9834-2.758 2.5709-2.8903-0.9-0.31-300.9-23.26-303.9-23.26-2.1703 0-2.2696 0.3499-2.2696 8 0 6.6753 0.2656 8 1.6042 8 0.8822 0 34.256 2.7286 74.163 6.0635l72.559 6.0635 6.0871-2.7512c12.302-5.5602 31.216-3.9388 41.15 3.5276 4.87 3.6606 2.9412 3.6131 60.866 1.4993zm-1569.7-2.0442 8.25-0.59494v-12.382-12.382h-8.8378c-4.8608 0-20.386 0.29715-34.5 0.66033l-25.662 0.66033v12.967 12.967l26.25-0.65035c14.438-0.35769 29.962-0.91808 34.5-1.2453zm73.25-2.199 22.5-0.65942 0.282-12.408 0.2821-12.408-15.782 0.65455c-8.6801 0.36-24.67 0.65605-35.532 0.65788l-19.8 0.01v12.884 12.884l12.75-0.47414c7.0125-0.26078 22.875-0.77088 35.25-1.1336zm987-1.6693c26.125-0.84127 50.762-1.7841 54.75-2.0952l7.25-0.56559v-5.4147-5.4147l-10.75 0.0257c-5.9125 0.0142-29.875 0.67758-53.25 1.4743-23.375 0.79668-45.538 1.4601-49.25 1.4743l-6.8 0.03v6.4278 6.4277l5.25-0.41788c2.8875-0.22984 26.625-1.1062 52.75-1.9475zm-896.75-1.1264 26.75-0.66329v-11.779-11.779l-26.25 0.4563c-14.438 0.25097-31.762 0.71407-38.5 1.0291l-12.25 0.57281v12.041 12.041l11.75-0.62815c6.4625-0.34548 23.788-0.92662 38.5-1.2914zm95.5-3.0043 24.25-0.65682v-11.159-11.159l-17.75 0.317c-9.7625 0.17436-26.862 0.58721-38 0.91746l-20.25 0.60046v11.53 11.53l13.75-0.63223c7.5625-0.34773 24.662-0.9278 38-1.289zm950.12-1.391c30-1.08 56.2-1.97 58.3-1.97h3.8766v-5.5-5.5l-3.75 0.0113c-2.0625 0.006-31.2 0.89929-64.75 1.9846s-61.562 1.9802-62.25 1.9887c-0.8554 0.0105-1.25 1.8572-1.25 5.85v5.8346l7.75-0.36621c4.2625-0.20141 32.218-1.252 62.123-2.3346zm-855.12-1.5965 18.25-0.64811v-10.362-10.362h-14.839c-8.1613 0-24.361 0.29656-36 0.65902l-21.161 0.65903v10.979 10.979l17.75-0.62807c9.7625-0.34543 25.962-0.91971 36-1.2762zm83.75-2.4132c21.45-0.59232 40.462-1.2957 42.25-1.5631l3.25-0.4862v-9.8395-9.8395l-6.25 0.37886c-3.4375 0.20838-24.588 0.65937-47 1.0022l-40.75 0.62332v10.383 10.383l4.75 0.0178c2.6125 0.01 22.3-0.4668 43.75-1.0591zm858.6-4.46v-5.5h-4-4v5.5 5.5h4 4v-5.5zm-2748-14.776v-19.276l-4 0.38146-4 0.38146v18.895 18.895h4 4v-19.276zm134 16.274c52.525-1.084 102.08-1.9768 110.13-1.9841l14.631-0.0132 0.725-9.6701c0.3987-5.3186 1.2684-13.644 1.9327-18.5 1.1828-8.6469 1.165-8.8294-0.8561-8.8082-1.1351 0.0119-49.089 0.67717-106.56 1.4783-57.475 0.80112-111.59 1.4664-120.25 1.4783l-15.8 0.02v19 19l10.25-0.0159c5.6375-0.009 53.225-0.90276 105.75-1.9868zm1876-1.0297c16.225-0.52683 30.738-0.96009 32.25-0.96279h2.8v-9.5307-9.5307l-15.75 0.53741c-8.6625 0.29557-29.588 0.81107-46.5 1.1456l-30.75 0.60813v9.9453 9.9453l14.25-0.5974c7.8375-0.32857 27.525-1.0284 43.75-1.5553zm-1721.5-7.71c1.3428-12.957 2.6394-23.938 3.1881-27l0.5826-3.25h-6.0923c-5.5031 0-6.1405 0.21755-6.5918 2.25-0.6845 3.0831-2.3024 16.617-3.108 26l-0.6655 7.75h6.0456 6.0455l0.5958-5.75zm33.253 4.761 8.2047-0.011 0.4721-3.25c0.2597-1.7875 1.1948-8.65 2.0781-15.25 0.8832-6.6 1.8713-13.251 2.1956-14.781l0.5897-2.7808-12.843 0.28079-12.843 0.28079-1.254 7.4983c-3.909 23.373-3.5737 29.474 1.5728 28.623 1.9926-0.32957 7.315-0.60416 11.828-0.61021zm1802.7-0.51c24.2-0.80544 45.012-1.4731 46.25-1.4836 2.1583-0.0184 2.25-0.37153 2.25-8.66v-8.6408l-35.75 0.64995c-19.662 0.35747-44.638 0.93253-55.5 1.2779l-19.75 0.62797v8.8629 8.8629l9.25-0.0164c5.0875-0.009 29.05-0.67536 53.25-1.4808zm-1555.5-4.06c220.6-4.0626 201.03-3.2602 200.36-8.2177-1.0356-7.6752-4.7035-26.152-5.4225-27.315-0.7201-1.1652-316.38 2.0421-386.4 3.9261l-24.959 0.67158-1.7134 8.5c-0.9424 4.675-2.0089 11.875-2.37 16s-0.8931 8.3405-1.1821 9.3679c-0.5008 1.7798 0.128 1.8391 13.329 1.2586 7.6201-0.33508 101.38-2.2212 208.35-4.1913zm1672.5 0.54812c19.8-0.57295 39.262-1.292 43.25-1.5978l7.25-0.55612v-8.0129-8.0129l-5.75 0.57249c-3.1625 0.31487-26.112 0.86587-51 1.2244l-45.25 0.65195v8.3738 8.3737l7.75 0.0125c4.2625 0.007 23.95-0.45626 43.75-1.0292zm137.51-4.5208c26.1-0.81 49.9-1.47 52.8-1.47h5.2378v-7.1551-7.1551l-41.25 0.66686c-22.688 0.36676-51.488 0.9558-64 1.309l-22.75 0.64212v7.8505 7.8505l11.25-0.54187c6.1875-0.29802 32.63-1.2 58.762-2.0044zm-1567-1.72c-0.01-1.9883-2.8827-20.733-4.0622-26.5l-1.0737-5.25h-12.84-12.84l1.3097 5.75c0.7203 3.1625 1.8209 9.125 2.4457 13.25s1.3659 8.9625 1.6469 10.75l0.5109 3.25h12.455c9.3002 0 12.453-0.31659 12.449-1.25zm29.001-2c0-1.2375-0.9005-8.325-1.9954-15.75s-1.9929-13.612-1.9954-13.75c0-0.1375-2.8369-0.25-6.2987-0.25h-6.2941l1.6865 10.25c0.9276 5.6375 1.9923 12.838 2.3661 16l0.6795 5.75h5.9281c5.4823 0 5.9277-0.16918 5.9234-2.25zm40.755 1.2571 9.25-0.007v-16-16h-16-16v16.645 16.645l6.75-0.6375c3.7125-0.35062 10.912-0.64069 16-0.6446zm52-1.0011 9.25-0.006v-16.148-16.148l-8.25 0.64222c-4.5375 0.35322-12.412 0.64492-17.5 0.64822l-9.3 0.01v16.148 16.148l8.25-0.64222c4.5375-0.35322 12.412-0.64492 17.5-0.64822zm1598-1.1622 42.25-1.229v-6.4556-6.4556l-29.25 0.6412c-16.088 0.35266-43.088 0.93581-60 1.2959l-30.75 0.65469v7.0101 7.0101l17.75-0.62137c9.7625-0.34176 36.762-1.1744 60-1.8504zm-1544.2 0.15h14.4v-15.5-15.5h-21-21v15.333c0 17.707-0.2936 17.061 7.3967 16.272 3.2432-0.33289 12.356-0.60525 20.25-0.60525zm79.4-16.53v-15.47h-24-24l-0.0008 15.75-0.0008 15.75 24.001-0.28463 24.001-0.28462v-15.465zm57.344 13.883 10.656-0.65196v-14.848-14.848l-23.25 0.0136c-30.99 0.0182-27.75-1.8622-27.75 16.103v14.883h14.844c8.1645 0 19.64-0.29338 25.5-0.65197zm1529.7-1.35c33.275-1.086 62.412-1.9802 64.75-1.9872l4.2-0.01v-5.6564-5.6564l-24.75 0.64541c-13.612 0.35498-43.312 0.94619-66 1.3138l-41.25 0.66837v6.3426c0 4.4142 0.38 6.3387 1.25 6.3298 0.6875-0.007 28.475-0.90127 61.75-1.9872zm-1460.3 0h11.341v-15-15l-16.75 0.005c-9.2125 0.003-21.138 0.29572-26.5 0.65083l-9.75 0.64565v15.005 15.005l15.159-0.65613c8.3374-0.3607 20.262-0.65596 26.5-0.65596zm94.5-1.88 7.8-0.12v-14.5-14.5l-21.25 0.003c-11.688 0.002-28.338 0.29729-37 0.65656l-15.75 0.65323v14.593 14.593l29.251-0.62996c16.088-0.34648 32.739-0.68398 37.001-0.75zm63.5-1.12h22.3v-14.5-14.5h-24.353c-13.394 0-27.119 0.28911-30.5 0.64246l-6.1467 0.64245v13.691c0 16.151-0.4517 15.408 8.9009 14.636 4.0705-0.3363 17.458-0.61145 29.75-0.61145zm1396.3-5.03c0-5.5048-1.1368-6.6531-5.5022-5.5574-2.2455 0.56357-2.4978 1.13-2.4978 5.6078v4.981h4 4v-5.0314zm-1296.8 3.03h8.8378v-14-14l-29.25 0.009c-16.088 0.005-31.612 0.29246-34.5 0.63929l-5.25 0.6306v14.021 14.021l25.662-0.66033c14.114-0.36318 29.639-0.66033 34.5-0.66033zm80.178-1.657 16.66-0.65704v-13.343-13.343h-35.5-35.5v14 14h18.84c10.362 0 26.337-0.29567 35.5-0.65704zm96.41-1.9716 14.25-0.57932v-13.543-13.543l-7.6509 0.64673c-4.208 0.35571-21.533 0.64674-38.5 0.64674h-30.849v13.906 13.906l24.25-0.43067c13.338-0.23687 30.662-0.69136 38.5-1.01zm101-1.9896 6.25-0.54104v-13.079-13.079l-19.661 0.65846c-10.814 0.36215-27.914 0.65846-38 0.65846h-18.339v13.464 13.464l31.75-0.5029c17.462-0.27659 34.562-0.74637 38-1.0439zm80.4-1.38h14.8v-13-13l-9.75 0.002c-5.3625 0.001-21.562 0.29834-36 0.66048l-26.25 0.65844v12.999 12.999l21.161-0.65903c11.639-0.36246 27.839-0.65902 36-0.65902zm122.59-2.5862 3.25-0.50442v-11.955-11.955h-28.84c-15.862 0-37.012 0.29601-47 0.65781l-18.16 0.6578v12.441 12.441l43.75-0.63931c24.062-0.35162 45.212-0.86629 47-1.1437zm101-2.0363 12.25-0.57888v-12.057-12.057l-18.16 0.6578c-9.9882 0.3618-30.913 0.65781-46.5 0.65781h-28.34v12.585 12.585l34.25-0.60722c18.838-0.33398 39.762-0.86772 46.5-1.1861zm104.5-2.0091 35.75-0.64995v-11.359-11.359h-28.338c-15.586 0-40.561 0.2973-55.5 0.66067l-27.162 0.66067v11.976 11.976l19.75-0.62797c10.862-0.34538 35.838-0.92044 55.5-1.2779zm149-2.9923 5.75-0.57249v-11.063-11.063l-28.663 0.66098c-15.764 0.36354-38.714 0.66098-51 0.66098h-22.337v11.626 11.626l45.25-0.65195c24.888-0.35857 47.838-0.90957 51-1.2244zm118.75-2.2513 31.5-0.62479 0.2839-10.76 0.284-10.76-40.784 0.53571c-22.431 0.29465-51.246 0.79938-64.034 1.1216l-23.25 0.58593v10.966 10.966l32.25-0.7033c17.738-0.38681 46.425-0.98445 63.75-1.3281zm139.25-2.7809 29.75-0.64418v-10.152-10.152l-26.75 0.30864c-14.712 0.16975-41.712 0.58298-60 0.91828l-33.25 0.60964v10.534 10.534l30.25-0.65614c16.638-0.36088 43.638-0.94602 60-1.3003zm153.53-3.0132 25.284-0.64762-0.2843-9.4569-0.2843-9.4569-21.5 0.1099c-11.825 0.0604-41.412 0.40592-65.75 0.76772l-44.25 0.65782v10.006 10.006l40.75-0.66944c22.412-0.36819 52.128-0.96087 66.034-1.3171zm47.9-1.33c2.3879 0 2.4182-0.11901 2.4182-9.5v-9.5h-4-4v10.107c0 8.8054 0.2037 10.029 1.5818 9.5 0.87-0.33385 2.67-0.60699 4-0.60699zm-2745.8-15.812 0.2764-15.312-3.7764 0.31194l-3.82 0.31-0.27953 13.952c-0.33036 16.488-0.25997 16.775 4.0226 16.362l3.26-0.31 0.2764-15.312zm156.15 13.296c60.183-0.82283 109.56-1.6342 109.73-1.8032 0.1689-0.16892 1.4307-4.5536 2.804-9.7439 1.3732-5.1902 3.1825-11.647 4.0207-14.348l1.5239-4.911-72.751 0.66451c-40.013 0.36548-97.613 0.96012-128 1.3214l-55.25 0.65692v14.84 14.84l14.25-0.0101c7.8375-0.006 63.49-0.68332 123.67-1.5061zm2766.5-19.51c171.75-22.918 152.75-20.005 148.41-22.751-1.8776-1.19-4.3138-2.7799-5.4138-3.533-1.65-1.1297-10.876-1.291-52.72-0.9214l-50.72 0.44795-2.5835 4.4084c-11.927 20.353-46.324 22.982-63.858 4.8808l-4.1195-4.2528-61 9.3699c-33.55 5.1535-62.012 9.6042-63.25 9.8905-2.1737 0.50292-2.25 0.91301-2.25 12.089v11.569l3.75-0.59099c2.0625-0.32504 71.25-9.598 153.75-20.607zm-2625.5 13.77c0.9236-3.5916 6.2533-20.466 7.7381-24.5 0.3387-0.91995-1.2767-1.25-6.1177-1.25h-6.5779l-2.9724 9.75c-1.6348 5.3625-3.6486 12.112-4.4752 15l-1.5028 5.25h6.4076 6.4075l1.0928-4.25zm45.538-5c1.4948-4.5375 3.9785-11.062 5.5194-14.5l2.8017-6.25h-13.803-13.803l-2.2996 6.25c-2.5934 7.0482-6.9681 20.86-6.9683 22 0 0.4125 5.8129 0.75 12.918 0.75h12.918l2.7177-8.25zm236.87 5.1928c84.1-1.07 158.7-1.94 165.8-1.94 9.5986 0 12.823-0.3145 12.816-1.25-0.014-1.9765-9.864-24.052-11.43-25.618-1.3873-1.3872-345.89 0.93843-369.25 2.4928l-8.1909 0.54493-5.0517 11.961c-2.7784 6.5788-5.3371 13.099-5.6859 14.489l-0.6343 2.5273 34.377-0.63073c18.907-0.3469 103.19-1.505 187.3-2.5736zm222.6-3.89c0-0.52026-1.8327-6.0328-4.0726-12.25-2.24-6.2172-4.3175-12.092-4.6167-13.054-0.4897-1.5756-28.311-2.9424-28.311-1.3908 0 0.19754 1.5228 3.685 3.3839 7.75 1.8612 4.065 4.3965 10.203 5.634 13.641l2.2501 6.25h12.866c7.4202 0 12.866-0.40038 12.866-0.94591zm30.546-0.30409c-0.215-0.6875-1.1285-3.725-2.03-6.75-0.9014-3.025-2.782-8.7625-4.179-12.75l-2.5401-7.25h-6.4819c-4.7792 0-6.3536 0.32836-5.9937 1.25 0.2685 0.6875 2.413 6.9875 4.7656 14l4.2776 12.75h6.2862c4.5709 0 6.1796-0.3411 5.8953-1.25zm58.5-13.78v-14.025l-15.75 0.2754-15.75 0.27539-0.2782 13.75-0.2782 13.75h16.028 16.028v-14.025zm43.75 13.371 8.25-0.64222v-13.352-13.352h-17.5-17.5v14 14l9.25-0.006c5.0875-0.003 12.962-0.295 17.5-0.64822zm67.25-14.366v-14.02l-20.75 0.27029-20.75 0.27029-0.2782 13.75-0.2782 13.75h21.028 21.028v-14.02zm65-1.1317v-14.152l-10.656 0.65196c-5.8605 0.35859-16.66 0.65197-24 0.65197h-13.344v13.5 13.5h24 24v-14.152zm44.75 13.166l23.2-0.01v-13.5-13.5h-25.5-25.5v14.117 14.117l2.25-0.60297c1.2375-0.33164 12.712-0.60913 25.5-0.61664zm76.5-1.0085 16.75-0.005v-13.5-13.5h-26.5-26.5v14.151 14.151l9.75-0.64565c5.3625-0.35511 17.288-0.64798 26.5-0.65083zm86.5-1.0018 21.25-0.003v-13.5-13.5h-18.84c-10.362 0-27.012 0.29601-37 0.65781l-18.16 0.6578v13.499 13.499l15.75-0.65323c8.6625-0.35927 25.312-0.65473 37-0.65656zm74.5-0.99464 24.75-0.009v-13.5-13.5l-8.75 0.002c-4.8125 0.001-18.538 0.29802-30.5 0.65925l-21.75 0.6568v12.674c0 14.605-0.099 14.398 6.5 13.617 2.75-0.32567 16.138-0.59604 29.75-0.60082zm81.5-1 29.25-0.009v-13.657-13.657l-15.75 0.65323c-8.6625 0.35927-24.188 0.65473-34.5 0.65656l-18.7 0.01v13.639 13.639l5.25-0.6306c2.8875-0.34683 18.412-0.63451 34.5-0.63929zm116.7-14.51v-13l-5.75 0.0357c-3.1625 0.0196-19.025 0.13215-35.25 0.25l-29.6 0.21v13.013 13.013l35.25-0.2628 35.25-0.26279v-13zm86.849 11.853 7.6509-0.64673v-13-13l-7.6509 0.64673c-4.208 0.35571-21.533 0.64674-38.5 0.64674h-30.849v13 13h30.849c16.967 0 34.292-0.29103 38.5-0.64674zm80.99-1.0117 19.661-0.65846v-12.977-12.977l-4.6396 0.63593c-2.5517 0.34975-19.652 0.63592-38 0.63592h-33.36v13 13h18.339c10.086 0 27.186-0.29631 38-0.65846zm98.911-1.3395 9.75-0.002v-12.5-12.5h-36-36v13.16 13.16l26.25-0.65844c14.438-0.36214 30.638-0.65936 36-0.66048zm92-1h28.8v-13.151-13.151l-9.75 0.64565c-5.3625 0.35511-26.512 0.64798-47 0.65083l-37.2 0.01v13.158 13.158l18.16-0.6578c9.9882-0.3618 31.138-0.65781 47-0.65781zm120.09-1.6609 18.75-0.65528v-12.501-12.501l-20.25 0.6561c-11.138 0.36085-32.062 0.65728-46.5 0.65872h-26.3v12.5 12.5l27.75-0.003c15.262-0.002 36.188-0.2977 46.5-0.65811zm145.5-1.8916c0.9094-0.27989 1.25-3.6628 1.25-12.416v-12.03l-15.75 0.001c-8.6625 0.00075-33.638 0.2989-55.5 0.66255l-39.75 0.66118v12.335 12.335l54.25-0.58189c29.838-0.32004 54.812-0.75501 55.5-0.9666zm91.587-1.1085 28.663-0.66098v-11.839-11.839h-34.34c-18.887 0-41.837 0.29567-51 0.65704l-16.66 0.65704v11.843 11.843h22.337c12.286 0 35.236-0.29744 51-0.66098zm145.41-1.9783 28.25-0.58902v-12.046-12.046l-24.162 0.65994c-13.289 0.36297-42.089 0.65995-64 0.65995h-39.838v12.488 12.488l35.75-0.51282c19.662-0.28206 48.462-0.77789 64-1.1019zm156-1.9876 9.25-0.55973v-11.407-11.407l-24.75 0.002c-13.612 0.00084-40.612 0.29876-60 0.66203l-35.25 0.6605v11.829 11.829l50.75-0.5249c27.912-0.28869 54.912-0.77677 60-1.0846zm247.02-6.3815c25.151-3.8546 46.404-7.1774 47.23-7.384 0.825-0.20654-19.988-0.42774-46.25-0.49154l-47.8-0.11v7.5c0 4.125 0.2342 7.5 0.5205 7.5s21.099-3.1538 46.25-7.0085zm-92.02 4.4153 3.25-0.49744v-11.358-11.358l-58.75 0.43516c-32.312 0.23935-62.012 0.68434-66 0.98888l-7.25 0.55371v11.484 11.484l62.75-0.61769c34.512-0.33973 64.212-0.84154 66-1.1151zm28.2-11.91v-11.5h-4-4v11.5 11.5h4 4v-11.5zm378.73-2.193c-0.973-0.25354-2.323-0.23687-3 0.0371-0.6771 0.27393 0.119 0.48137 1.769 0.46099 1.65-0.0204 2.2039-0.2445 1.231-0.49804zm-2808.7-12.61c95.026-193.42 384.05-194.53 480.92-1.8515l4.0995 8.1535h6.4889c8.1206 0 8.1401 0.52078-0.5801-15.507-111.8-205.52-414-196.72-507.3 14.76l-2.5376 5.75 6.7374-0.0536 6.7374-0.0536 5.5-11.195zm42 10.439c0-7.7929 36.845-50.535 57.552-66.763 106.19-83.22 269.63-54.506 335.84 59.001l2.8438 4.8756 5.1342-0.61689c2.8239-0.33929 9.0809-0.6208 13.905-0.62558l8.7703-0.009-2.1596-4.2332c-89.9-176.18-349.1-174.74-447.3 2.48l-3.7418 6.75h14.586c8.0224 0 14.586-0.38819 14.586-0.86264zm215.5-1.6494c79.75-0.83726 148.5-1.6271 152.77-1.7551l7.7685-0.23283-8.2266-11c-86.749-116-268.06-109.84-346.27 11.75l-1.7688 2.75 25.365 0.005c13.951 0.003 90.615-0.6799 170.36-1.5172zm-575.3-66.74c0.1605-10.588 0.1701-38.891 0.021-62.896l-0.2704-43.646-15.73-0.79776c-19.82-1.01-60.72-1.01-73.2-0.01l-9.5 0.76147-0.1078 18.671c-0.19905 34.478-9.048 72.62-23.53 101.42l-2.8912 5.75h62.473 62.473l0.2918-19.25zm2959.2-18.81c38.4-6.68 18.1-56.94-22.9-56.94-39.8 0-61.664 48.587-25.403 56.452 7.8177 1.6958 39.557 2.015 48.336 0.48614zm170.87-16.906c36.595-7.5539 15.508-56.948-24.344-57.02-26.2-0.0476-46.762 20.906-42.55 43.36 2.4237 12.92 36.636 19.906 66.894 13.661zm161.84-10.022c22.758-2.2145 30.729-10.527 26.506-27.641-10.638-43.11-81.811-39.009-84.442 4.8656-1.1854 19.765 16.684 26.789 57.937 22.775z"/>
</svg>
