<?xml version="1.0" standalone="no"?>
<!DOCTYPE svg PUBLIC "-//W3C//DTD SVG 20010904//EN"
 "http://www.w3.org/TR/2001/REC-SVG-20010904/DTD/svg10.dtd">
<svg version="1.0" xmlns="http://www.w3.org/2000/svg"
 width="1280.000000pt" height="640.000000pt" viewBox="0 0 1280.000000 640.000000"
 preserveAspectRatio="xMidYMid meet">
<metadata>
Created by potrace 1.15, written by Peter Selinger 2001-2017
</metadata>
<g transform="translate(0.000000,640.000000) scale(0.100000,-0.100000)"
fill="#000000" stroke="none">
<path d="M360 3900 c-53 -66 -70 -126 -70 -240 l0 -100 -146 0 c-94 0 -143 -4
-139 -10 4 -6 65 -10 150 -10 l143 0 20 -62 c31 -101 28 -102 -162 -106 -202
-3 -211 -22 -11 -22 l145 0 -44 -64 c-24 -36 -47 -74 -51 -85 -6 -19 -14 -21
-95 -21 -49 0 -92 -4 -95 -10 -4 -6 25 -10 81 -10 l87 0 -7 -31 c-3 -17 -6
-58 -6 -90 l0 -59 -81 0 c-51 0 -78 -4 -74 -10 3 -5 41 -10 83 -10 l77 -1 30
-51 c17 -29 49 -67 73 -85 l44 -33 -156 0 c-97 0 -156 -4 -156 -10 0 -6 87
-10 241 -10 l242 0 -5 -82 c-5 -95 -24 -139 -71 -169 -37 -23 -84 -20 -126 8
l-26 17 29 6 c16 3 38 17 49 32 40 53 -12 130 -76 114 -130 -32 -50 -226 92
-226 104 0 151 67 166 233 l7 67 726 0 c727 0 727 0 695 -20 -60 -36 -56 -95
10 -138 37 -25 49 -27 137 -27 88 0 100 2 137 27 23 15 44 37 48 48 9 30 -11
73 -43 93 -26 16 -17 16 204 17 l232 0 38 -39 c31 -30 52 -41 98 -51 96 -20
217 14 241 68 l10 22 3706 0 3706 0 11 -26 c30 -65 200 -91 295 -45 27 13 53
34 59 47 l11 24 234 0 235 0 -31 -25 c-40 -34 -46 -58 -25 -95 25 -42 77 -63
162 -68 158 -9 254 81 171 159 l-31 29 621 0 c407 0 621 3 621 10 0 7 -333 10
-978 10 l-979 0 -11 24 c-31 68 -200 95 -297 46 -27 -14 -54 -35 -60 -47 -10
-23 -11 -23 -245 -23 l-235 0 33 26 c25 20 32 33 32 60 0 33 -28 74 -50 74 -5
0 -10 3 -10 8 0 4 626 6 1392 4 924 -1 1395 1 1402 8 9 9 -2244 16 -3191 10
l-302 -2 -38 40 c-46 48 -103 66 -189 59 -74 -6 -132 -32 -153 -69 l-16 -28
-233 0 -233 0 35 34 c46 43 46 69 0 112 l-35 34 2181 0 c1452 0 2179 3 2175
10 -4 7 -860 10 -2534 10 l-2529 0 -15 24 c-58 88 -295 89 -352 2 l-17 -26
-230 0 -230 0 31 29 c46 43 39 95 -17 125 -24 13 315 15 2936 16 1968 0 2962
3 2962 10 0 7 -2070 10 -6190 10 -3405 0 -6190 2 -6190 5 0 2 16 29 35 60 19
30 40 66 45 80 l10 25 6139 0 c4082 0 6142 3 6146 10 4 7 -2042 10 -6132 10
l-6138 0 0 88 c0 78 -4 95 -33 157 -34 72 -77 135 -92 135 -4 0 -23 -18 -40
-40z m98 -105 c17 -37 15 -133 -4 -188 l-16 -47 -54 0 -54 0 0 55 c0 31 7 72
15 93 15 34 81 112 95 112 4 0 12 -11 18 -25z m-38 -258 c0 -4 -12 -26 -26
-49 -29 -45 -37 -42 -49 22 l-6 35 40 0 c23 0 41 -3 41 -8z m6184 -221 c-42
-42 -43 -70 -3 -107 l31 -29 -227 0 -227 0 -21 26 c-33 42 -92 64 -175 64 -83
0 -157 -28 -175 -67 l-10 -23 -2675 2 -2675 3 -17 51 c-10 28 -21 65 -25 82
l-7 32 3120 0 3120 0 -34 -34z m202 3 c52 -49 36 -139 -25 -139 -17 0 -43 11
-60 26 -27 22 -31 33 -31 73 0 26 6 53 13 60 17 18 75 7 103 -20z m-6412 -78
c9 -30 16 -56 16 -58 0 -2 -29 -3 -65 -3 -36 0 -65 3 -65 6 0 15 84 124 91
117 4 -4 14 -32 23 -62z m5616 -6 c17 -9 30 -17 30 -19 0 -3 3 -11 6 -20 5
-14 -4 -16 -65 -16 -67 0 -71 1 -71 23 0 47 45 61 100 32z m1569 -11 c17 -14
31 -30 31 -35 0 -5 -34 -9 -75 -9 -81 0 -88 6 -59 48 21 30 65 29 103 -4z
m-7251 -91 c-32 -34 -48 -73 -48 -119 0 -32 -2 -34 -35 -34 -41 0 -43 9 -19
91 25 85 29 89 81 89 l47 0 -26 -27z m4725 1 c-45 -35 -46 -84 -2 -125 l31
-29 -226 0 -227 0 -37 39 c-41 43 -90 61 -168 61 -72 0 -140 -26 -172 -66
l-26 -33 -1786 -1 -1786 0 -18 54 c-12 40 -28 65 -58 91 l-42 35 2275 0 2274
0 -32 -26z m205 -19 c24 -28 29 -74 12 -106 -17 -31 -75 -26 -111 10 -37 37
-41 101 -8 124 27 20 76 6 107 -28z m550 15 c37 -49 76 -64 172 -65 70 0 93 4
128 23 23 13 48 34 54 47 l11 25 582 0 583 0 39 -39 c48 -48 105 -65 190 -58
73 7 114 26 145 67 l22 30 233 0 234 0 -36 -31 c-48 -43 -47 -77 2 -118 l38
-31 -1440 0 -1439 0 32 29 c49 46 43 94 -18 135 -23 15 -11 16 211 16 l235 0
22 -30z m252 10 c0 -21 -33 -60 -50 -60 -38 0 -100 46 -100 74 0 3 34 6 75 6
68 0 75 -2 75 -20z m1552 15 c3 -3 3 -17 0 -31 -7 -36 -42 -50 -82 -34 -29 12
-60 44 -60 62 0 9 133 11 142 3z m753 -32 c19 -19 25 -36 25 -67 0 -51 -13
-66 -57 -66 -58 0 -104 65 -89 125 12 48 76 52 121 8z m-7918 -83 c6 -27 8
-52 5 -55 -10 -10 -111 -5 -117 6 -11 17 16 69 44 84 46 25 57 19 68 -35z m91
22 c20 -13 52 -60 52 -77 0 -3 -22 -5 -49 -5 -49 0 -49 0 -55 38 -4 20 -10 45
-13 55 -4 16 -1 18 19 12 12 -5 33 -15 46 -23z m3905 -13 c23 -12 56 -48 57
-61 0 -5 -34 -8 -75 -8 -70 0 -75 1 -75 22 0 47 47 71 93 47z m4677 -4 c26
-13 50 -42 50 -59 0 -3 -34 -6 -75 -6 -65 0 -75 2 -75 18 0 27 29 62 51 62 11
0 33 -7 49 -15z m-8815 -106 c9 -27 76 -72 89 -59 7 7 -1 21 -22 43 -18 18
-32 35 -32 37 0 3 27 3 60 2 66 -4 64 -2 75 -94 l6 -58 -28 -1 c-112 -4 -182
31 -224 112 -10 20 -16 38 -14 41 2 2 22 2 44 0 29 -3 42 -10 46 -23z m293 7
c5 -24 -34 -99 -59 -114 -11 -7 -22 -12 -24 -10 -1 2 -6 35 -10 73 l-7 70 49
-1 c36 -1 49 -6 51 -18z m2896 -9 c-45 -38 -46 -78 -3 -118 l31 -29 -230 0
-230 0 -16 25 c-37 56 -145 85 -242 65 -46 -10 -67 -21 -98 -51 l-38 -39
-1063 0 -1062 0 43 43 c28 29 47 59 55 88 l12 44 1438 0 1437 0 -34 -28z m759
-4 c67 -85 277 -85 344 1 l21 26 2143 0 2144 0 22 -29 c51 -65 196 -83 290
-36 27 14 54 34 59 46 9 19 19 20 242 22 127 1 232 1 232 -1 0 -2 -13 -15 -30
-29 -41 -34 -41 -75 1 -114 l31 -29 -2993 0 -2994 0 31 25 c17 13 34 33 36 43
8 28 -17 79 -41 87 -52 16 -6 20 210 17 l232 -3 20 -26z m247 7 c0 -42 -45
-61 -94 -38 -24 10 -59 51 -51 59 2 2 35 3 74 1 61 -3 71 -6 71 -22z m4670 7
c0 -10 -5 -27 -10 -38 -24 -44 -130 -4 -130 49 0 4 32 7 70 7 61 0 70 -2 70
-18z m-5479 -16 c57 -57 29 -151 -40 -136 -61 13 -99 92 -71 146 17 31 75 26
111 -10z m6236 -6 c50 -57 18 -144 -46 -130 -62 13 -99 92 -70 147 16 29 85
19 116 -17z m-7054 -64 c26 -10 67 -49 67 -63 0 -4 -34 -8 -75 -8 -68 0 -75 2
-75 20 0 20 33 60 49 60 5 0 21 -4 34 -9z m7814 -17 c12 -8 27 -23 33 -34 10
-19 8 -20 -65 -20 -73 0 -75 1 -75 24 0 50 53 64 107 30z m-8571 -93 c67 -41
65 -142 -2 -149 -68 -7 -127 87 -90 143 20 30 50 32 92 6z m824 -4 c0 -32 -18
-47 -57 -47 -33 0 -83 36 -83 60 0 6 28 10 70 10 66 0 70 -1 70 -23z m7790 7
c0 -8 -5 -24 -10 -35 -21 -38 -104 -18 -130 32 -10 18 -7 19 65 19 61 0 75 -3
75 -16z m753 -24 c74 -82 -16 -178 -94 -101 -34 35 -40 98 -12 126 23 24 72
12 106 -25z"/>
<path d="M1194 2671 c-23 -10 -48 -28 -56 -39 -10 -14 -27 -22 -58 -24 -33 -2
-46 -8 -48 -20 -3 -15 4 -18 43 -18 38 0 51 -5 67 -25 35 -45 75 -59 168 -60
91 0 128 13 172 60 16 17 36 25 68 27 32 2 45 7 45 18 0 11 -14 16 -49 18 -37
2 -54 9 -64 24 -26 36 -90 58 -172 58 -52 0 -88 -6 -116 -19z m158 -31 l33
-29 -77 -1 c-69 0 -77 2 -71 18 19 52 66 57 115 12z m38 -85 c0 -20 -36 -55
-55 -55 -25 0 -73 29 -85 50 -10 19 -7 20 65 20 60 0 75 -3 75 -15z"/>
<path d="M12094 2671 c-23 -10 -48 -28 -56 -39 -10 -14 -27 -22 -58 -24 -33
-2 -46 -8 -48 -20 -3 -15 4 -18 43 -18 38 0 51 -5 67 -25 35 -45 75 -59 168
-60 75 0 90 3 131 27 26 15 49 34 52 42 4 10 23 16 54 18 35 2 48 7 48 18 0
11 -14 16 -49 18 -37 2 -54 9 -64 24 -26 36 -90 58 -172 58 -52 0 -88 -6 -116
-19z m139 -12 c12 -6 28 -19 35 -30 12 -18 9 -19 -58 -19 -61 0 -70 2 -70 18
0 39 44 54 93 31z m57 -104 c0 -20 -36 -55 -55 -55 -25 0 -73 29 -85 50 -10
19 -7 20 65 20 60 0 75 -3 75 -15z"/>
</g>
</svg>
